# xmcd
#
# Track frame offsets: 
#        150
#        5322
#        11022
#        13737
#        17160
#        19523
#        23802
#        27105
#        31615
#        34368
#        36657
#        40195
#        45237
#        47937
#        51279
#        55638
#        58556
#        62452
#        64029
#        67861
#        73187
#
# Disc length: 1009 seconds
#
# Revision: 0
# Processed by: cddbd v1.5.2PL0 Copyright (c) Steve Scherf et al.
# Submitted via: ExactAudioCopyFreeDBPlugin 1.0
#
DISCID=0903ef15
DTITLE=Fred Sokolow - Slide Guitar for the Rock Guitarist
DYEAR=1996
DGENRE=Slide Guitar
TTITLE0=Open D Tuning
TTITLE1=Preliminaries
TTITLE2=Rockslide (First and Second Half)
TTITLE3=12th Fret D Blues
TTITLE4=Elmore's Boogie
TTITLE5=First Position D Blues Scale Licks
TTITLE6=Blues Box Rock
TTITLE7=Open E Tuning
TTITLE8=Rockslide #2
TTITLE9=Elmore's Boogie #2
TTITLE10=Blues Box Rock #2
TTITLE11=Open G Tuning
TTITLE12=Universal Blues
TTITLE13=Country Rocking
TTITLE14=Open A Tuning
TTITLE15=The Seventh Song
TTITLE16=Standard Tunung
TTITLE17="Position Playing" Licks
TTITLE18=Chicago Blues
TTITLE19=A Higher Standard
TTITLE20=A Higher Standard, pt 2
EXTD=
EXTT0=
EXTT1=
EXTT2=
EXTT3=
EXTT4=
EXTT5=
EXTT6=
EXTT7=
EXTT8=
EXTT9=
EXTT10=
EXTT11=
EXTT12=
EXTT13=
EXTT14=
EXTT15=
EXTT16=
EXTT17=
EXTT18=
EXTT19=
EXTT20=
PLAYORDER=
